<svg version="1.1" id="Layer_1" xmlns="http://www.w3.org/2000/svg" xmlns:xlink="http://www.w3.org/1999/xlink" x="0px" y="0px"
	 width="100%" viewBox="0 0 512 512" enable-background="new 0 0 512 512" xml:space="preserve">
<path fill="#000000" opacity="1.000000" stroke="none" 
	d="
M248.000000,513.000000 
	C224.312439,513.000000 200.624878,513.000000 176.172043,512.703857 
	C181.436249,500.614960 187.479126,488.829010 193.488663,477.026062 
	C195.885696,472.318176 194.634109,467.388153 190.567184,465.219238 
	C186.427795,463.011627 181.395767,464.924377 179.047546,469.676544 
	C174.971954,477.924500 171.215179,486.344055 166.809769,494.410431 
	C163.477402,500.512085 160.419083,506.285858 165.000000,513.000000 
	C110.357513,513.000000 55.715027,513.000000 1.036271,513.000000 
	C1.036271,342.433014 1.036271,171.866013 1.036271,1.000000 
	C105.020706,1.000000 209.041687,1.000000 313.829224,1.316406 
	C313.726501,3.312671 312.196655,4.954494 312.097382,6.678701 
	C311.539642,16.364275 311.228302,26.067947 311.056061,35.769405 
	C311.004761,38.658138 311.442566,41.610691 312.068024,44.443089 
	C312.955994,48.464195 316.477325,49.631031 319.849579,49.844753 
	C323.765961,50.092960 326.945526,46.587917 326.983337,42.769207 
	C327.044098,36.629810 327.178528,30.482861 326.954956,24.351021 
	C326.670349,16.544289 328.422424,8.547095 325.000000,1.000000 
	C387.637909,1.000000 450.275848,1.000000 512.956909,1.000000 
	C512.956909,171.559647 512.956909,342.119293 512.956909,513.000000 
	C428.646057,513.000000 344.291687,513.000000 259.169037,512.705200 
	C264.595062,500.317383 270.823273,488.241425 276.964447,476.121429 
	C278.988373,472.127136 277.346649,467.205048 273.530334,465.202728 
	C269.247742,462.955750 264.933350,464.325897 262.627594,468.854706 
	C257.049652,479.810547 251.593155,490.828247 246.005737,501.779175 
	C244.401398,504.923584 244.760559,507.673157 246.857666,510.403412 
	C247.417068,511.131744 247.628693,512.127197 248.000000,513.000000 
M383.755066,287.779999 
	C385.451843,286.530273 387.156464,285.291046 388.844238,284.029297 
	C406.918243,270.517365 420.104980,253.319611 428.033234,232.138306 
	C433.913391,216.428802 436.889587,200.258881 434.917755,183.506165 
	C433.821472,174.192322 432.868805,164.676147 430.140137,155.775818 
	C422.950867,132.325806 409.514008,112.945297 389.694153,98.153481 
	C367.201202,81.366730 342.172638,73.116333 313.245789,75.032288 
	C312.495361,75.078651 311.744934,75.125008 310.504364,75.033821 
	C310.340637,75.078453 310.176880,75.123077 309.145203,75.022423 
	C304.815796,75.679977 300.475311,76.272209 296.158905,77.006241 
	C276.033661,80.428635 258.498932,89.518288 243.112717,102.541550 
	C231.825226,112.095543 222.791229,123.732117 215.181671,136.965668 
	C212.835190,135.645233 210.542679,134.215683 208.132767,133.023468 
	C198.310104,128.164032 187.857040,125.167900 177.018097,124.156715 
	C171.431122,123.635483 165.689102,124.776337 159.166229,125.015526 
	C152.825607,126.666649 146.310257,127.834663 140.175034,130.053665 
	C115.402924,139.013306 99.491112,156.848267 91.174637,181.392105 
	C88.415070,189.536224 87.649330,198.355942 85.977081,206.841156 
	C71.100105,207.151810 57.002792,211.098770 44.002991,218.990677 
	C31.207716,226.758408 21.066750,237.090454 14.261423,250.417297 
	C6.537831,265.542419 2.104285,281.524994 5.120831,298.619507 
	C6.645846,307.261658 8.573414,316.027588 11.834184,324.127594 
	C18.384626,340.399414 30.091322,352.673615 45.131626,361.516144 
	C57.266899,368.650726 70.412636,372.982758 84.681198,372.988068 
	C154.794693,373.014313 224.908188,373.002136 295.021698,372.992828 
	C298.015472,372.992432 301.009216,372.886566 304.740967,372.990875 
	C305.490326,372.935638 306.239685,372.880402 307.648773,372.969818 
	C308.093811,372.921509 308.538879,372.873199 309.911224,372.989075 
	C318.273193,372.504639 326.914429,373.203613 334.943634,371.308990 
	C357.071777,366.087433 372.751129,352.597626 381.242828,331.294098 
	C386.883270,317.143494 387.732361,302.692535 383.755066,287.779999 
M243.589218,410.922791 
	C243.972198,409.068695 244.944702,407.102966 244.619080,405.383026 
	C243.872711,401.440613 241.390717,398.518341 237.202667,398.076080 
	C233.130447,397.646057 230.558014,400.104492 228.808258,403.601166 
	C223.744492,413.720551 218.635422,423.817322 213.546310,433.924072 
	C211.042099,438.897278 212.360611,444.936798 216.352921,446.800201 
	C220.470795,448.722260 225.473434,446.580383 228.094635,441.449036 
	C233.170013,431.513306 238.081879,421.494080 243.589218,410.922791 
M131.561111,445.037628 
	C138.844223,449.438354 142.519974,446.579224 145.144577,441.413177 
	C150.483261,430.904938 155.787659,420.378662 161.011826,409.813141 
	C163.139435,405.510223 161.441071,401.098328 157.096146,399.011536 
	C152.868637,396.981140 148.071457,398.719543 146.025223,402.950531 
	C140.845444,413.660706 135.708984,424.393127 130.386230,435.032135 
	C128.678787,438.444946 128.384598,441.478546 131.561111,445.037628 
M321.952911,419.377777 
	C323.332764,416.458313 325.325104,413.657440 325.919952,410.585938 
	C326.512512,407.525909 326.859619,403.374573 325.278900,401.144440 
	C321.421051,395.701599 315.169769,397.104279 311.759613,403.716797 
	C306.428314,414.054840 301.217712,424.455811 296.033966,434.868927 
	C293.706390,439.544495 295.240662,444.845978 299.303253,446.791168 
	C302.951019,448.537781 308.242340,446.363342 310.419739,442.088898 
	C314.158875,434.748596 317.812073,427.364563 321.952911,419.377777 
M438.508636,321.006561 
	C439.802368,322.298187 441.078735,323.607788 442.393250,324.877899 
	C445.837463,328.205902 450.540833,328.615723 453.602417,325.876129 
	C456.637604,323.160156 457.210663,317.014526 454.152893,313.821014 
	C446.453979,305.780304 438.591705,297.886444 430.560547,290.177948 
	C427.135864,286.890839 422.054504,287.294189 419.095398,290.425293 
	C415.945618,293.758179 416.174561,298.660553 419.670380,302.165680 
	C425.774750,308.286285 431.892426,314.393646 438.508636,321.006561 
M204.514755,87.010910 
	C205.684738,88.190826 206.843979,89.381660 208.026825,90.548546 
	C211.146378,93.626038 216.221252,94.071609 219.002350,91.524239 
	C222.658356,88.175507 223.379211,83.167824 220.089890,79.742043 
	C212.263031,71.590469 204.271439,63.588165 196.118439,55.763073 
	C192.962616,52.734161 186.736359,53.461868 184.181030,56.584389 
	C182.053040,59.184750 182.618179,65.132462 185.305008,67.828156 
	C191.525528,74.069252 197.771820,80.284668 204.514755,87.010910 
M443.999908,77.499855 
	C447.171875,74.335152 450.360748,71.187187 453.511139,68.001167 
	C456.831573,64.643135 457.099091,59.807938 454.181824,56.685627 
	C450.771545,53.035648 445.845062,52.774384 442.110504,56.415676 
	C434.506622,63.829716 427.012817,71.359230 419.585510,78.950638 
	C415.833221,82.785866 415.929199,87.541847 419.524841,91.007744 
	C422.801270,94.165947 427.575531,93.895752 431.173981,90.318596 
	C435.293549,86.223335 439.392212,82.107048 443.999908,77.499855 
M494.435547,199.000061 
	C496.601166,198.999969 498.768524,199.055756 500.932037,198.988235 
	C505.549835,198.844147 510.282837,194.836960 509.922913,190.951675 
	C509.449738,185.844208 506.790863,182.793091 500.898285,182.931992 
	C490.575653,183.175308 480.243164,182.995438 469.914795,183.001251 
	C462.979858,183.005157 460.989258,184.809067 460.999969,191.049561 
	C461.008820,196.208954 464.071869,198.962799 469.964783,198.990799 
	C477.794189,199.028015 485.623871,199.000031 494.435547,199.000061 
z"/>
<path fill="#A0C8FF" opacity="1.000000" stroke="none" 
	d="
M248.458069,513.000000 
	C247.628693,512.127197 247.417068,511.131744 246.857666,510.403412 
	C244.760559,507.673157 244.401398,504.923584 246.005737,501.779175 
	C251.593155,490.828247 257.049652,479.810547 262.627594,468.854706 
	C264.933350,464.325897 269.247742,462.955750 273.530334,465.202728 
	C277.346649,467.205048 278.988373,472.127136 276.964447,476.121429 
	C270.823273,488.241425 264.595062,500.317383 258.700378,512.705200 
	C255.638718,513.000000 252.277420,513.000000 248.458069,513.000000 
z"/>
<path fill="#A0C8FF" opacity="1.000000" stroke="none" 
	d="
M165.458069,513.000000 
	C160.419083,506.285858 163.477402,500.512085 166.809769,494.410431 
	C171.215179,486.344055 174.971954,477.924500 179.047546,469.676544 
	C181.395767,464.924377 186.427795,463.011627 190.567184,465.219238 
	C194.634109,467.388153 195.885696,472.318176 193.488663,477.026062 
	C187.479126,488.829010 181.436249,500.614960 175.703384,512.703857 
	C172.638718,513.000000 169.277420,513.000000 165.458069,513.000000 
z"/>
<path fill="#FFBD61" opacity="1.000000" stroke="none" 
	d="
M324.541931,1.000000 
	C328.422424,8.547095 326.670349,16.544289 326.954956,24.351021 
	C327.178528,30.482861 327.044098,36.629810 326.983337,42.769207 
	C326.945526,46.587917 323.765961,50.092960 319.849579,49.844753 
	C316.477325,49.631031 312.955994,48.464195 312.068024,44.443089 
	C311.442566,41.610691 311.004761,38.658138 311.056061,35.769405 
	C311.228302,26.067947 311.539642,16.364275 312.097382,6.678701 
	C312.196655,4.954494 313.726501,3.312671 314.297882,1.316406 
	C317.361298,1.000000 320.722565,1.000000 324.541931,1.000000 
z"/>
<path fill="#F9F5F3" opacity="1.000000" stroke="none" 
	d="
M308.983917,372.824890 
	C308.538879,372.873199 308.093811,372.921509 307.118103,372.686584 
	C305.725952,372.545502 304.864471,372.687683 304.002991,372.829834 
	C301.009216,372.886566 298.015472,372.992432 295.021698,372.992828 
	C224.908188,373.002136 154.794693,373.014313 84.681198,372.988068 
	C70.412636,372.982758 57.266899,368.650726 45.131626,361.516144 
	C30.091322,352.673615 18.384626,340.399414 11.834184,324.127594 
	C8.573414,316.027588 6.645846,307.261658 5.120831,298.619507 
	C2.104285,281.524994 6.537831,265.542419 14.261423,250.417297 
	C21.066750,237.090454 31.207716,226.758408 44.002991,218.990677 
	C57.002792,211.098770 71.100105,207.151810 85.977081,206.841156 
	C87.649330,198.355942 88.415070,189.536224 91.174637,181.392105 
	C99.491112,156.848267 115.402924,139.013306 140.175034,130.053665 
	C146.310257,127.834663 152.825607,126.666649 159.868439,125.330132 
	C168.701813,128.428833 177.527542,130.005081 184.841171,134.210815 
	C213.095154,150.458389 227.715683,174.895386 229.270493,207.997147 
	C230.564545,235.547256 251.624084,243.727859 275.422607,239.021637 
	C279.274719,239.425095 282.697510,240.036118 286.136169,240.145065 
	C292.741180,240.354355 299.355225,240.279007 306.083435,240.654785 
	C321.111053,244.708389 334.244080,251.330246 344.669342,263.065430 
	C358.972290,279.165527 364.640564,297.825714 360.425201,318.730835 
	C354.992218,345.674530 338.367462,362.986725 311.986755,370.888000 
	C310.890747,371.216248 309.980621,372.165131 308.983917,372.824890 
z"/>
<path fill="#FFCE69" opacity="1.000000" stroke="none" 
	d="
M305.965515,240.321747 
	C299.355225,240.279007 292.741180,240.354355 286.136169,240.145065 
	C282.697510,240.036118 279.274719,239.425095 275.210693,238.747772 
	C261.135071,233.148132 253.227524,221.893539 253.037216,207.320953 
	C252.676025,179.661896 240.924057,157.832031 219.478989,140.834473 
	C218.114044,139.752594 217.092438,138.237549 215.911102,136.924011 
	C222.791229,123.732117 231.825226,112.095543 243.112717,102.541550 
	C258.498932,89.518288 276.033661,80.428635 296.158905,77.006241 
	C300.475311,76.272209 304.815796,75.679977 309.673462,75.234055 
	C310.465973,75.354248 310.730225,75.262802 310.994507,75.171356 
	C311.744934,75.125008 312.495361,75.078651 313.719666,75.463699 
	C314.718048,76.241791 315.197388,76.728523 315.773743,76.914345 
	C325.985565,80.206863 336.664795,82.473701 346.336670,86.929581 
	C367.376740,96.622826 383.747620,112.082260 395.350616,132.105331 
	C409.586487,156.671951 414.264557,183.187866 409.392426,211.240417 
	C405.203613,235.358475 394.222473,255.937820 376.480286,272.870972 
	C359.560486,247.221329 335.421600,237.999771 305.965515,240.321747 
z"/>
<path fill="#FFBD61" opacity="1.000000" stroke="none" 
	d="
M376.741394,273.059753 
	C394.222473,255.937820 405.203613,235.358475 409.392426,211.240417 
	C414.264557,183.187866 409.586487,156.671951 395.350616,132.105331 
	C383.747620,112.082260 367.376740,96.622826 346.336670,86.929581 
	C336.664795,82.473701 325.985565,80.206863 315.773743,76.914345 
	C315.197388,76.728523 314.718048,76.241791 314.090393,75.534607 
	C342.172638,73.116333 367.201202,81.366730 389.694153,98.153481 
	C409.514008,112.945297 422.950867,132.325806 430.140137,155.775818 
	C432.868805,164.676147 433.821472,174.192322 434.917755,183.506165 
	C436.889587,200.258881 433.913391,216.428802 428.033234,232.138306 
	C420.104980,253.319611 406.918243,270.517365 388.844238,284.029297 
	C387.156464,285.291046 385.451843,286.530273 383.288025,287.578217 
	C380.794464,282.604218 378.767914,277.831970 376.741394,273.059753 
z"/>
<path fill="#F9EAE0" opacity="1.000000" stroke="none" 
	d="
M376.480286,272.870972 
	C378.767914,277.831970 380.794464,282.604218 382.971466,287.713501 
	C387.732361,302.692535 386.883270,317.143494 381.242828,331.294098 
	C372.751129,352.597626 357.071777,366.087433 334.943634,371.308990 
	C326.914429,373.203613 318.273193,372.504639 309.447571,372.906982 
	C309.980621,372.165131 310.890747,371.216248 311.986755,370.888000 
	C338.367462,362.986725 354.992218,345.674530 360.425201,318.730835 
	C364.640564,297.825714 358.972290,279.165527 344.669342,263.065430 
	C334.244080,251.330246 321.111053,244.708389 306.083435,240.654785 
	C335.421600,237.999771 359.560486,247.221329 376.480286,272.870972 
z"/>
<path fill="#F9EAE0" opacity="1.000000" stroke="none" 
	d="
M215.546387,136.944839 
	C217.092438,138.237549 218.114044,139.752594 219.478989,140.834473 
	C240.924057,157.832031 252.676025,179.661896 253.037216,207.320953 
	C253.227524,221.893539 261.135071,233.148132 274.788574,238.728546 
	C251.624084,243.727859 230.564545,235.547256 229.270493,207.997147 
	C227.715683,174.895386 213.095154,150.458389 184.841171,134.210815 
	C177.527542,130.005081 168.701813,128.428833 160.293900,125.405457 
	C165.689102,124.776337 171.431122,123.635483 177.018097,124.156715 
	C187.857040,125.167900 198.310104,128.164032 208.132767,133.023468 
	C210.542679,134.215683 212.835190,135.645233 215.546387,136.944839 
z"/>
<path fill="#A0C8FF" opacity="1.000000" stroke="none" 
	d="
M243.325363,411.216125 
	C238.081879,421.494080 233.170013,431.513306 228.094635,441.449036 
	C225.473434,446.580383 220.470795,448.722260 216.352921,446.800201 
	C212.360611,444.936798 211.042099,438.897278 213.546310,433.924072 
	C218.635422,423.817322 223.744492,413.720551 228.808258,403.601166 
	C230.558014,400.104492 233.130447,397.646057 237.202667,398.076080 
	C241.390717,398.518341 243.872711,401.440613 244.619080,405.383026 
	C244.944702,407.102966 243.972198,409.068695 243.325363,411.216125 
z"/>
<path fill="#A0C8FF" opacity="1.000000" stroke="none" 
	d="
M131.274658,444.756836 
	C128.384598,441.478546 128.678787,438.444946 130.386230,435.032135 
	C135.708984,424.393127 140.845444,413.660706 146.025223,402.950531 
	C148.071457,398.719543 152.868637,396.981140 157.096146,399.011536 
	C161.441071,401.098328 163.139435,405.510223 161.011826,409.813141 
	C155.787659,420.378662 150.483261,430.904938 145.144577,441.413177 
	C142.519974,446.579224 138.844223,449.438354 131.274658,444.756836 
z"/>
<path fill="#A0C8FF" opacity="1.000000" stroke="none" 
	d="
M321.727112,419.688324 
	C317.812073,427.364563 314.158875,434.748596 310.419739,442.088898 
	C308.242340,446.363342 302.951019,448.537781 299.303253,446.791168 
	C295.240662,444.845978 293.706390,439.544495 296.033966,434.868927 
	C301.217712,424.455811 306.428314,414.054840 311.759613,403.716797 
	C315.169769,397.104279 321.421051,395.701599 325.278900,401.144440 
	C326.859619,403.374573 326.512512,407.525909 325.919952,410.585938 
	C325.325104,413.657440 323.332764,416.458313 321.727112,419.688324 
z"/>
<path fill="#FFBD61" opacity="1.000000" stroke="none" 
	d="
M438.256592,320.756561 
	C431.892426,314.393646 425.774750,308.286285 419.670380,302.165680 
	C416.174561,298.660553 415.945618,293.758179 419.095398,290.425293 
	C422.054504,287.294189 427.135864,286.890839 430.560547,290.177948 
	C438.591705,297.886444 446.453979,305.780304 454.152893,313.821014 
	C457.210663,317.014526 456.637604,323.160156 453.602417,325.876129 
	C450.540833,328.615723 445.837463,328.205902 442.393250,324.877899 
	C441.078735,323.607788 439.802368,322.298187 438.256592,320.756561 
z"/>
<path fill="#FFBD61" opacity="1.000000" stroke="none" 
	d="
M204.261200,86.760704 
	C197.771820,80.284668 191.525528,74.069252 185.305008,67.828156 
	C182.618179,65.132462 182.053040,59.184750 184.181030,56.584389 
	C186.736359,53.461868 192.962616,52.734161 196.118439,55.763073 
	C204.271439,63.588165 212.263031,71.590469 220.089890,79.742043 
	C223.379211,83.167824 222.658356,88.175507 219.002350,91.524239 
	C216.221252,94.071609 211.146378,93.626038 208.026825,90.548546 
	C206.843979,89.381660 205.684738,88.190826 204.261200,86.760704 
z"/>
<path fill="#FFBD61" opacity="1.000000" stroke="none" 
	d="
M443.749939,77.749878 
	C439.392212,82.107048 435.293549,86.223335 431.173981,90.318596 
	C427.575531,93.895752 422.801270,94.165947 419.524841,91.007744 
	C415.929199,87.541847 415.833221,82.785866 419.585510,78.950638 
	C427.012817,71.359230 434.506622,63.829716 442.110504,56.415676 
	C445.845062,52.774384 450.771545,53.035648 454.181824,56.685627 
	C457.099091,59.807938 456.831573,64.643135 453.511139,68.001167 
	C450.360748,71.187187 447.171875,74.335152 443.749939,77.749878 
z"/>
<path fill="#FFBD61" opacity="1.000000" stroke="none" 
	d="
M493.944489,199.000061 
	C485.623871,199.000031 477.794189,199.028015 469.964783,198.990799 
	C464.071869,198.962799 461.008820,196.208954 460.999969,191.049561 
	C460.989258,184.809067 462.979858,183.005157 469.914795,183.001251 
	C480.243164,182.995438 490.575653,183.175308 500.898285,182.931992 
	C506.790863,182.793091 509.449738,185.844208 509.922913,190.951675 
	C510.282837,194.836960 505.549835,198.844147 500.932037,198.988235 
	C498.768524,199.055756 496.601166,198.999969 493.944489,199.000061 
z"/>
<path fill="#F9EAE0" opacity="1.000000" stroke="none" 
	d="
M304.371979,372.910339 
	C304.864471,372.687683 305.725952,372.545502 306.788239,372.614258 
	C306.239685,372.880402 305.490326,372.935638 304.371979,372.910339 
z"/>
<path fill="#FFBD61" opacity="1.000000" stroke="none" 
	d="
M310.749451,75.102585 
	C310.730225,75.262802 310.465973,75.354248 310.107422,75.306694 
	C310.176880,75.123077 310.340637,75.078453 310.749451,75.102585 
z"/>
</svg>